<?xml version="1.0" standalone="no"?>
<!DOCTYPE svg PUBLIC "-//W3C//DTD SVG 20010904//EN"
 "http://www.w3.org/TR/2001/REC-SVG-20010904/DTD/svg10.dtd">
<svg version="1.0" xmlns="http://www.w3.org/2000/svg"
 width="1501.000000pt" height="1501.000000pt" viewBox="0 0 1501.000000 1501.000000"
 preserveAspectRatio="xMidYMid meet">
<metadata>
Created by potrace 1.11, written by Peter Selinger 2001-2013
</metadata>
<g transform="translate(0.000000,1501.000000) scale(0.100000,-0.100000)"
fill="#000000" stroke="none">
<path d="M3928 12945 c-2 -2 -57 -6 -123 -10 -66 -3 -136 -8 -155 -10 -19 -2
-69 -6 -110 -10 -41 -3 -91 -7 -110 -10 -19 -2 -59 -7 -89 -10 -30 -4 -61 -8
-70 -10 -9 -1 -43 -6 -76 -10 -32 -4 -68 -9 -79 -11 -11 -2 -38 -6 -61 -9 -89
-12 -426 -78 -500 -97 -22 -6 -44 -11 -50 -12 -169 -35 -765 -211 -880 -261
-16 -7 -64 -25 -105 -40 -71 -26 -99 -37 -172 -69 -18 -8 -62 -26 -98 -41
-116 -48 -164 -76 -198 -113 -54 -62 -59 -97 -60 -397 0 -148 -1 -283 -1 -300
l-1 -30 -173 -2 c-139 -1 -187 -5 -251 -22 -162 -43 -288 -126 -399 -262 -20
-25 -37 -49 -37 -53 0 -5 -8 -20 -19 -34 -28 -41 -68 -150 -81 -222 -14 -76
-18 -8127 -4 -8220 24 -161 86 -286 200 -405 101 -105 267 -191 404 -211 30
-4 3135 -8 6900 -8 5771 0 6854 2 6905 14 33 8 62 14 65 14 20 3 114 45 155
69 168 98 285 249 335 429 20 74 20 89 17 4213 -1 2277 -5 4147 -8 4155 -3 8
-9 26 -13 40 -42 128 -126 249 -236 340 -64 52 -76 60 -150 95 -106 51 -190
66 -370 69 l-165 2 -5 314 c-5 326 -7 340 -51 402 -28 39 -72 65 -214 126
-311 133 -805 302 -1042 357 -10 2 -52 13 -93 23 -92 24 -246 60 -280 66 -14
2 -72 14 -130 25 -105 20 -152 29 -200 36 -14 2 -51 9 -83 14 -32 6 -84 13
-115 16 -31 4 -64 8 -72 10 -8 2 -42 7 -75 10 -33 4 -71 8 -85 10 -14 2 -61 7
-105 10 -44 4 -96 9 -115 11 -255 25 -968 26 -1220 0 -19 -2 -69 -7 -110 -11
-111 -9 -157 -14 -240 -26 -41 -5 -91 -12 -110 -15 -48 -6 -79 -11 -190 -29
-128 -21 -137 -22 -275 -51 -66 -14 -131 -27 -145 -30 -14 -3 -33 -7 -42 -10
-9 -3 -26 -7 -37 -9 -12 -3 -31 -7 -43 -11 -13 -3 -34 -7 -48 -10 -14 -3 -34
-8 -45 -11 -11 -4 -24 -8 -30 -9 -30 -6 -146 -37 -185 -49 -505 -159 -724
-240 -1030 -378 -25 -11 -64 -28 -87 -38 l-43 -18 0 22 c-1 35 -35 99 -72 134
-38 36 -138 83 -403 185 -329 127 -780 268 -858 268 -39 0 -80 -28 -102 -71
-8 -15 -21 -26 -28 -24 -6 3 -41 11 -77 19 -36 8 -97 21 -135 30 -39 8 -84 17
-100 20 -17 3 -55 10 -85 16 -30 6 -65 12 -76 14 -12 2 -39 7 -60 11 -22 3
-50 8 -64 10 -98 16 -290 41 -385 50 -33 3 -75 8 -93 10 -18 3 -72 8 -120 11
-48 3 -105 8 -127 10 -49 5 -802 13 -807 9z"/>
</g>
</svg>
