<svg t="1585560012460" class="icon" viewBox="0 0 1024 1024" version="1.1" 
  xmlns="http://www.w3.org/2000/svg" p-id="2237" width="128" height="128" 
  xmlns:xlink="http://www.w3.org/1999/xlink">
  <path d="M611.069748 986.252494H191.285834A124.762255 124.762255 0 0 1 69.828231 859.605191V126.670576A123.063385 123.063385 0 0 1 191.285834 0h588.786619a124.762255 124.762255 0 0 1 121.457603 126.647303v503.912912a30.835663 30.835663 0 0 1-31.673462 32.348355 32.441445 32.441445 0 0 1-31.673462-32.348355V126.670576a59.204473 59.204473 0 0 0-58.180496-59.27429H191.285834a59.204473 59.204473 0 0 0-58.180495 59.27429v732.934615a59.204473 59.204473 0 0 0 58.180495 59.274289h419.783914a32.441445 32.441445 0 0 1 31.673462 32.325084 33.13961 33.13961 0 0 1-31.673462 35.024658z m50.17486-665.584873H310.090407a32.348356 32.348356 0 0 1 0-64.673439H658.61485a32.441445 32.441445 0 0 1 31.673462 32.325083 30.253858 30.253858 0 0 1-29.043704 32.348356z m0 183.24529H310.090407a32.441445 32.441445 0 0 1-31.673462-32.325083 30.812391 30.812391 0 0 1 31.673462-32.348356H658.61485a32.441445 32.441445 0 0 1 31.673462 32.348356 30.253858 30.253858 0 0 1-29.043704 32.325083z m-203.305925 183.24529h-147.848276a32.441445 32.441445 0 0 1-31.673462-32.325084 30.812391 30.812391 0 0 1 31.673462-32.325083h147.848276a32.348356 32.348356 0 0 1 0 64.626895zM859.244472 1023.976728a29.625509 29.625509 0 0 1-21.131156-8.075453L584.679075 749.132065a26.181223 26.181223 0 0 1-7.912547-26.949206l7.912547-78.148042a33.97741 33.97741 0 0 1 29.043704-29.64878l73.935774-8.075453a43.961183 43.961183 0 0 1 26.390673 8.075453l253.457512 266.769209a31.417468 31.417468 0 0 1 0 45.799687l-81.848321 86.223495a42.192496 42.192496 0 0 1-26.413945 10.7983z m-219.13102-309.892594l219.13102 231.744552 36.956251-40.423809-219.13102-231.744551-34.326493 2.699575-2.629758 37.724233z" p-id="2238">
  </path>
</svg>
