<svg t="1557493230597" viewBox="0 0 1024 1024" version="1.1" 
  xmlns="http://www.w3.org/2000/svg" p-id="2200" 
  xmlns:xlink="http://www.w3.org/1999/xlink" width="128" height="128">
  <path d="M952.32 424.7552a86.528 86.528 0 0 0-54.784-29.696V207.36a86.6304 86.6304 0 0 0-86.528-86.528H545.6896a86.6304 86.6304 0 0 0-86.528 86.528V245.76H178.3808A86.6304 86.6304 0 0 0 92.16 332.3904v62.0544a34.2016 34.2016 0 0 0 2.1504 11.6736 87.552 87.552 0 0 0-21.504 17.8176 86.2208 86.2208 0 0 0-20.48 68.7104l46.3872 335.9744A86.9376 86.9376 0 0 0 184.32 903.168h647.4752a86.016 86.016 0 0 0 85.4016-72.6016l54.4768-335.9744A86.3232 86.3232 0 0 0 952.32 424.7552zM178.3808 317.44h316.3136a35.5328 35.5328 0 0 0 35.5328-35.5328v-74.5472a15.4624 15.4624 0 0 1 15.4624-15.4624H811.008a15.5648 15.5648 0 0 1 15.4624 15.4624V394.24h-663.552v-61.44a15.5648 15.5648 0 0 1 15.4624-15.36zM901.12 483.2256L847.0528 819.2a15.36 15.36 0 0 1-15.2576 13.0048H184.32A15.4624 15.4624 0 0 1 169.1648 819.2L122.88 482.9184a14.9504 14.9504 0 0 1 3.584-12.288 15.4624 15.4624 0 0 1 11.6736-5.3248h748.544a15.5648 15.5648 0 0 1 11.3664 5.7344 15.1552 15.1552 0 0 1 3.072 12.1856z" fill="" p-id="2201">
  </path>
</svg>
