<svg t="1585913863258" class="icon" viewBox="0 0 1024 1024" version="1.1"
  xmlns="http://www.w3.org/2000/svg" p-id="6737" xmlns:xlink="http://www.w3.org/1999/xlink"
  width="128" height="128">
  <path d="M512 708.096a198.144 198.144 0 1 1 198.485333-197.973333A198.314667 198.314667 0 0 1 512 708.096z m0-293.717333a95.744 95.744 0 1 0 95.744 95.744A95.744 95.744 0 0 0 512 414.378667z">
  </path>
  <path d="M638.464 1010.346667a51.2 51.2 0 0 1-44.032-25.088 95.402667 95.402667 0 0 0-164.522667 0 51.2 51.2 0 0 1-69.632 18.261333L162.986667 889.344A51.2 51.2 0 0 1 144.384 819.2a94.208 94.208 0 0 0 12.970667-47.957333 95.744 95.744 0 0 0-94.549334-95.744h-2.389333a51.2 51.2 0 0 1-51.2-51.2V395.776a51.2 51.2 0 0 1 49.834667-51.2 95.061333 95.061333 0 0 0 93.354666-95.573333 94.208 94.208 0 0 0-12.117333-46.592 51.2 51.2 0 0 1 18.944-69.461334L358.4 17.066667a51.2 51.2 0 0 1 69.802667 18.432 94.890667 94.890667 0 0 0 82.773333 48.128 95.914667 95.914667 0 0 0 82.944-48.128A51.2 51.2 0 0 1 663.893333 17.066667l198.656 114.346666a51.2 51.2 0 0 1 18.432 70.485334 95.402667 95.402667 0 0 0 81.578667 144.213333h1.706667a51.2 51.2 0 0 1 51.2 51.2v225.792a51.2 51.2 0 0 1-15.36 36.693333 50.176 50.176 0 0 1-37.034667 14.506667h-1.877333A95.402667 95.402667 0 0 0 880.128 819.2a51.2 51.2 0 0 1-18.432 70.656L664.064 1003.52a51.2 51.2 0 0 1-25.6 6.826667zM512 836.266667a198.826667 198.826667 0 0 1 138.922667 57.173333l120.490666-69.632a197.802667 197.802667 0 0 1 141.653334-245.76v-136.533333a197.802667 197.802667 0 0 1-140.629334-244.394667l-121.344-69.973333a198.485333 198.485333 0 0 1-140.117333 58.368 198.656 198.656 0 0 1-139.093333-57.344l-123.221334 71.509333a197.802667 197.802667 0 0 1 6.314667 49.322667 196.608 196.608 0 0 1-143.36 190.464V580.266667a198.485333 198.485333 0 0 1 148.138667 191.658666 196.949333 196.949333 0 0 1-6.997334 51.2l120.661334 69.632A198.826667 198.826667 0 0 1 512 836.266667z">
  </path>
</svg>
